<?xml version="1.0" encoding="utf-8"?>
<!-- Generator: Adobe Illustrator 23.1.1, SVG Export Plug-In . SVG Version: 6.00 Build 0)  -->
<svg version="1.1" id="Calque_1" xmlns="http://www.w3.org/2000/svg" xmlns:xlink="http://www.w3.org/1999/xlink" x="0px" y="0px"
	 viewBox="0 0 610.7 298.1" style="enable-background:new 0 0 610.7 298.1;" xml:space="preserve">
<style type="text/css">
	.st0{fill:#FFFFFF;stroke:#000000;stroke-width:3;stroke-miterlimit:10;}
</style>
<path class="st0" d="M7,253.4c-0.4,4.8,2.6,9.3,7.4,10.4c16.4,4.1,58.5,12.3,133,14.5c98.7,3,292.4,6.7,368.7-22.7
	c0,0,26.4-9.7,22.7-35.8c-1.1-7.1-7.1-14.9-13.4-11.5c-17.5,9.7-69.3,21.2-178.8,24.2c-149.7-4.1-292-22.3-327.8-27.6
	c-5.2-0.7-6.3,6.7-7.1,11.9C10,226.2,8.1,240.7,7,253.4z"/>
<path class="st0" d="M15.2,161c0,0,92.4,12.3,204.1-96.8c0,0,37.2,15.6,43.6,26.8l-93.5,98.3c0,0-12.7,14.2-22,30.9L18.9,204.9
	c-2.2-0.4-3.7-1.9-4.1-4.1C14,193.8,13.3,178.1,15.2,161z"/>
<path class="st0" d="M276.6,229.5"/>
<path class="st0" d="M276.6,229.5c6.3-5.2,32-24.6,45.8-41.7c0.4-0.4,22.7-39.9,22.7-39.9l58.5,17.9c0.7,0,1.1,0.7,0.7,1.5
	c-3,10.4-19,29.4-8.6,35.8c0,0,6.3,4.5,28.3-10.1c13.4-8.9,14.2-8.9,64.4-8.9c0,0,22.3,0.4,25-5.2c0.4-0.4,0.7-0.7,1.5-0.4
	c3.4,1.9,13.8,8.9,15.6,21.6c0,0.4-0.4,3.7-1.9,5.2l-5.2,4.1l-29.8,9.3c0,0-45.4,7.4-118.8,12.7
	C350.4,233.2,318.7,234.4,276.6,229.5"/>
<path class="st0" d="M240.5,118.5l27.6-30.9l137.8,53.3c0,0,7.4,1.1,0,23.8L240.5,118.5z"/>
<path class="st0" d="M15.2,161c0,0,8.6-64.8,25-82.3c0,0,4.8-8.6,30.2,20.1s50.7,16.8,50.7,16.8s28.3-11.9,67.8-41.7
	c0,0,21.2-13.8,30.5-9.7C218.9,64.5,121.7,177,15.2,161z"/>
<path class="st0" d="M409.2,148.7c0,0-1.5,14.5-10.1,29.8c-8.2,14.5-13.4,33.1,15.3,20.1c0.4,0,5.2-2.2,7.8-4.5
	c4.1-3.7,15.6-12.7,46.9-10.1c0,0,48,1.9,45.8-5.6C512.4,171.4,409.2,148.7,409.2,148.7z"/>
<path class="st0" d="M172,83.5c-0.4,0.4-0.7,0-0.7,0c-1.1-2.6-4.8-15.3,6.3-32.4c12.7-19.7,13-21.2,13-21.2s4.1-10.1,19,0
	c14.5,9.7,17.1,14.5,17.1,18.3c0,0,0,0.4,0.4,0.4l169.5,83.8c0.4,0.4,0,3-0.7,2.6c-25.3-8.2-132.2-44.3-173.6-71.1
	c-2.6-1.5-5.6-2.2-8.6-2.2C205.5,62.3,191.7,72,172,83.5z"/>
<path class="st0" d="M243.9,56l-4.1-0.4c-1.9-0.4-3.7,1.1-3.7,3l-2.6,27.2c-0.4,1.9,1.1,3.7,3,3.7l4.1,0.4c1.9,0.4,3.7-1.1,3.7-3
	l2.6-27.2C247.2,57.8,245.7,56.3,243.9,56z"/>
<path class="st0" d="M265.1,66.8l-4.1-0.4c-1.9-0.4-3.7,1.1-3.7,3l-2.6,27.2c-0.4,1.9,1.1,3.7,3,3.7l4.1,0.4c1.9,0.4,3.7-1.1,3.7-3
	l2.6-27.2C268.4,68.6,266.9,66.8,265.1,66.8z"/>
<path class="st0" d="M284.8,76.8l-4.1-0.4c-1.9-0.4-3.7,1.1-3.7,3l-2.6,27.2c-0.4,1.9,1.1,3.7,3,3.7l4.1,0.4c1.9,0.4,3.7-1.1,3.7-3
	l2.6-27.2C288.2,78.7,287.1,76.8,284.8,76.8z"/>
<path class="st0" d="M305.3,86.5l-4.1-0.4c-1.9-0.4-3.7,1.1-3.7,3l-2.6,27.2c-0.4,1.9,1.1,3.7,3,3.7l4.1,0.4c1.9,0.4,3.7-1.1,3.7-3
	l2.6-27.2C308.7,88.4,307.2,86.9,305.3,86.5z"/>
<path class="st0" d="M344.4,105.9l-4.1-0.4c-1.9-0.4-3.7,1.5-3.7,3.7l-1.9,21.2c-0.4,2.2,1.1,4.5,3,4.5l4.1,0.4
	c1.9,0.4,3.7-1.5,3.7-3.7l1.9-21.2C347.8,108.5,346.6,105.9,344.4,105.9z"/>
<path class="st0" d="M361.9,114.4l-4.1-0.4c-1.9-0.4-3.7,1.5-3.7,3.7l-1.9,21.2c-0.4,2.2,1.1,4.5,3,4.5l4.1,0.4
	c1.9,0.4,3.7-1.5,3.7-3.7l1.9-21.2C364.9,116.7,363.8,114.4,361.9,114.4z"/>
<path class="st0" d="M378.3,122.3l-4.1-0.4c-1.9-0.4-3.7,1.1-3.7,3.4l-1.9,19c-0.4,1.9,1.1,4.1,3,4.1l4.1,0.4
	c1.9,0.4,3.7-1.1,3.7-3.4l1.9-19C381.7,124.1,380.2,122.6,378.3,122.3z"/>
<path class="st0" d="M326.5,96.6l-3.7-0.4c-1.9-0.4-3.7,1.1-3.7,3l-3,27.2c-0.4,1.9,1.1,3.7,3,3.7l4.1,0.4c1.9,0.4,3.7-1.1,3.7-3
	l2.6-27.2C329.9,98.4,328.8,96.6,326.5,96.6z"/>
<path class="st0" d="M147.4,220.2c0,0-1.5-18.6,55.1-65.9c0,0,18.3-18.6,37.6-39.5L345.5,148c0,0-20.9,51.4-62.2,79.3
	c-1.5,1.1-4.8,2.2-6.7,2.2L147.4,220.2z"/>
</svg>
