<?xml version="1.0" encoding="utf-8"?>
<!-- Generator: Adobe Illustrator 23.1.1, SVG Export Plug-In . SVG Version: 6.00 Build 0)  -->
<svg version="1.1" id="Calque_1" xmlns="http://www.w3.org/2000/svg" xmlns:xlink="http://www.w3.org/1999/xlink" x="0px" y="0px"
	 viewBox="0 0 408.9 193" style="enable-background:new 0 0 408.9 193;" xml:space="preserve">
<style type="text/css">
	.st0{fill:#FFFFFF;stroke:#000000;stroke-width:3;stroke-miterlimit:10;}
	.st1{fill:#FFFFFF;stroke:#000000;stroke-width:2.9998;stroke-miterlimit:9.9994;}
</style>
<path class="st0" d="M48.8,48.3C34,53.9,22.2,65.6,17.1,80.6c-1.3,4-2.3,8.3-2.5,12.9c-1.1,23.2,17.5,40.1,17.5,40.1
	s43.5,28.2,97.1,26s94.9,3.4,94.9,3.4s83.6,11.1,137.2-26.5c29-20.3,30-46.2,30-46.2s3.9-41.4-44.7-54.9
	c-43.8-12.2-67.2-7.9-67.2-7.9s-44.7,7.9-76.5,13c0,0-34.4,1-69.2-3.4C98.4,32.6,66.4,41.6,48.8,48.3z"/>
<path class="st0" d="M284.5,37.6c0,0-0.9-6.2,36.3,10s57.6,19.6,57.2,44.8s-28.2,36.1-28.2,36.1s-49.8,21.7-55.7,25.2
	s1.5-20.3,1.5-20.3s1.9-7.5-6.8-6.8c-8.7,0.8-128,8.7-128,8.7s-12.1,4.1-39,13c-26.8,8.9-75.7-19.8-75.7-19.8s-54.2-31.1,1.7-66.6
	s101.8-11.3,101.8-11.3s31.1,17,77.4,15.2c45.2-1.7,69.6,6.4,71.2,2.3C303.7,53.3,284.5,37.6,284.5,37.6z"/>
<path class="st0" d="M124,54c0,0,17.3-3,25.6,4.5c8.3,7.5,139.5,14.7,139.5,14.7v48.6c0,0-120.8,5.5-136.5,13.6s-30.5,4.9-30.5,4.9
	S164.2,103.3,124,54z"/>
<rect x="280" y="58.5" class="st0" width="9" height="76.8"/>
<rect x="271.2" y="58.5" transform="matrix(0.9554 -0.2952 0.2952 0.9554 -16.3775 85.3818)" class="st1" width="6.7" height="76.8"/>
<rect x="236.2" y="93.6" transform="matrix(0.2952 -0.9554 0.9554 0.2952 100.8628 330.6663)" class="st1" width="76.8" height="6.7"/>
<rect x="249.1" y="58.5" transform="matrix(0.9554 -0.2952 0.2952 0.9554 -17.3632 78.8561)" class="st1" width="6.7" height="76.8"/>
<rect x="214.2" y="93.6" transform="matrix(0.2952 -0.9554 0.9554 0.2952 85.4206 309.6644)" class="st1" width="76.8" height="6.7"/>
<rect x="227.4" y="58.5" transform="matrix(0.9554 -0.2952 0.2952 0.9554 -18.3298 72.4513)" class="st1" width="6.7" height="76.8"/>
<rect x="192.4" y="93.6" transform="matrix(0.2952 -0.9554 0.9554 0.2952 70.0666 288.8668)" class="st1" width="76.8" height="6.7"/>
<rect x="204.5" y="58.5" transform="matrix(0.9554 -0.2952 0.2952 0.9554 -19.3503 65.6914)" class="st1" width="6.7" height="76.8"/>
<rect x="169.5" y="93.6" transform="matrix(0.2952 -0.9554 0.9554 0.2952 53.932 266.9812)" class="st1" width="76.8" height="6.7"/>
<rect x="180.9" y="48.2" transform="matrix(0.9554 -0.2952 0.2952 0.9554 -18.911 58.4989)" class="st1" width="6.7" height="87.3"/>
<rect x="141" y="98.4" transform="matrix(0.2952 -0.9554 0.9554 0.2952 32.7449 247.8548)" class="st1" width="86.7" height="6.7"/>
<path class="st0" d="M114,50.6c0,0,44,48.2-2.6,89.4c0,0-80.4-10.3-79.6-44.7C32.6,58.4,114,50.6,114,50.6z"/>
</svg>
