<svg enable-background="new 0 0 498.9 115.2" viewBox="0 0 498.9 115.2" xmlns="http://www.w3.org/2000/svg" xmlns:xlink="http://www.w3.org/1999/xlink"><linearGradient id="a"><stop offset="0" stop-color="#9c1981"/><stop offset="1" stop-color="#00b4e8"/></linearGradient><linearGradient id="b" gradientTransform="matrix(1 0 0 -1 0 154.6693)" gradientUnits="userSpaceOnUse" x1="374.9972" x2="431.485" xlink:href="#a" y1="42.7353" y2="140.5751"/><linearGradient id="c" gradientTransform="matrix(1 0 0 -1 0 154.6693)" gradientUnits="userSpaceOnUse" x1="359.3889" x2="360.449" xlink:href="#a" y1="55.9771" y2="57.8132"/><linearGradient id="d" gradientTransform="matrix(1 0 0 -1 0 154.6693)" gradientUnits="userSpaceOnUse" x1="479.8143" x2="480.1771" xlink:href="#a" y1="92.8722" y2="93.5007"/><linearGradient id="e" gradientTransform="matrix(1 0 0 -1 0 154.6693)" gradientUnits="userSpaceOnUse" x1="479.839" x2="480.15" xlink:href="#a" y1="89.8652" y2="90.4039"/><linearGradient id="f" gradientTransform="matrix(1 0 0 -1 0 154.6693)" gradientUnits="userSpaceOnUse" x1="479.9223" x2="480.0265" xlink:href="#a" y1="94.245" y2="94.4255"/><g fill="#bcbcbc"><path d="m80.7 57.8c-.5 0-1 .4-1.3 1.2-1.6 3.2-3.3 6-5.1 8.6s-3.6 4.7-5.5 6.5c-1.8 1.8-3.6 3.2-5.4 4.1s-3.5 1.4-5.1 1.4c-1.5 0-3-.3-4.3-1s-2.7-1.9-4.2-3.7-3.2-4.4-5.2-7.6-4.3-7.5-7.1-12.7c-.5-.9-.9-1.5-1.4-1.9s-.9-.6-1.3-.6c-.6 0-1.1.6-1.5 1.8-.5 1.2-.9 2.8-1.2 4.9s-.6 4.6-.8 7.6-.3 6.2-.3 9.8c0 2.1.1 4.3.4 6.4.2 2.1.4 4.3.4 6.6 0 .8-.2 1.5-.6 2.1s-1 1.2-1.7 1.7-1.5.9-2.5 1.2-2 .4-3 .4c-2.1 0-3.7-1.3-4.6-3.8-.9-2.6-1.4-6.6-1.4-12.3 0-7.1.4-13.6 1.2-19.4s1.9-10.8 3.4-15 3.2-7.4 5.2-9.7 4.3-3.4 6.8-3.4c2.2 0 4.3 1.3 6.4 3.8s4.2 6.6 6.6 12.3c.9 2.3 2 4.5 3 6.5s2.2 3.7 3.3 5.2 2.1 2.6 3.2 3.5c1 .8 1.9 1.2 2.7 1.2s1.6-.2 2.3-.5c.7-.4 1.6-1.2 2.6-2.4s2.1-3 3.4-5.3 2.9-5.5 4.8-9.4c1-2 1.9-3.8 2.7-5.1.8-1.4 1.6-2.5 2.4-3.3s1.7-1.4 2.6-1.8 1.9-.5 3-.5c1.3 0 2.6.7 3.9 2.1s2.5 3.3 3.7 5.6 2.4 5.1 3.5 8.2c1.2 3.1 2.3 6.4 3.4 9.8s2.2 6.9 3.2 10.4 2.1 6.9 3 10c.3.9.4 1.6.5 2s.2.8.2 1.3c0 .7-.2 1.4-.7 2.1s-1 1.3-1.8 1.9c-.7.6-1.5 1-2.5 1.3s-1.8.5-2.7.5c-1.2 0-2.1-.1-2.8-.4s-1.2-.8-1.6-1.5c-.2-.4-.6-1.4-1.1-3.1s-1.2-3.5-1.9-5.8-1.5-4.7-2.3-7.3-1.7-4.9-2.5-7.1-1.6-3.9-2.4-5.4c-.7-1.3-1.4-2-2-2z"/><path d="m108.3 79.9c-.7 0-1.3-.4-1.6-1.1-.4-.7-.5-1.7-.5-3.1 0-.2 0-.5 0-.7 0-.3 0-.8.1-1.6.1-3.1 1.6-4.9 4.5-5.4l1.5-.1c1-.1 1.7-.4 2.3-.9s1-1.2 1.2-2.1c.7-2.4 1.4-4.9 2.2-7.4.7-2.5 1.5-4.9 2.3-7.4.4-1.4.9-2.8 1.3-4.4s.9-3.1 1.5-4.6c.5-1.5 1.2-3 1.9-4.5s1.5-2.9 2.4-4.1c.4-.5.9-1 1.6-1.6s1.5-1.1 2.3-1.5 1.8-.8 2.8-1.1 2-.4 3-.4c1.3 0 2.5.4 3.8 1.2 1.7 1.2 3.3 2.5 4.9 4.2 1.6 1.6 3.4 3.7 5.4 6.2s4.3 5.6 7 9.1c2.6 3.6 5.8 7.9 9.5 12.9.6.6 1.1 1.1 1.8 1.4.6.3 1.4.5 2.2.5h3.6c1.5 0 2.7.4 3.5 1.1s1.2 1.7 1.2 2.9v.9s-.1.7-.2 1l-1.2 3.6c-.1.3-.1.6-.2.9 0 .3-.1.5-.1.8 0 .9.3 1.8.9 2.7l6.8 9.3c.8 1.2 1.2 2.2 1.2 3.3 0 1.5-.9 2.9-2.6 4l-2.4 1.7c-.6.4-1.2.7-1.7.9s-1.1.3-1.6.3c-.8 0-1.5-.2-2.1-.7s-1.3-1.1-1.9-1.8c-2-2.9-4.1-5.8-6.2-8.6s-4.2-5.6-6.3-8.4c-1-1.4-2.3-2-3.9-2-5.2.2-10.3.5-15.4.9s-10.2.8-15.3 1.3c-1.8.2-3 1.2-3.5 2.9l-2.9 10.5c-.8 2.8-2.5 4.2-5.1 4.2h-1l-2-.3c-1.4-.1-2.5-.6-3.3-1.3-.7-.8-1.1-1.8-1.1-3 0-.3 0-.5.1-.8 0-.3.1-.6.2-1 .2-.9.4-1.7.7-2.6.2-.9.5-1.8.7-2.6.1-.3.1-.7.2-.9 0-.3.1-.5.1-.8 0-1.3-.5-2-1.5-2zm30.4-33.7c-.4-.4-.8-.7-1.2-1s-.7-.4-1.1-.4c-1.1 0-1.8.7-2.2 2.2-.9 2.5-1.7 5-2.5 7.4-.8 2.5-1.6 5-2.4 7.5-.1.2-.1.4-.1.6s0 .4 0 .6c0 1.6.8 2.4 2.5 2.4h.6c2.6-.3 5.1-.6 7.7-.8s5.1-.4 7.7-.5c.9-.1 1.5-.3 2-.7s.7-.8.7-1.4-.3-1.2-.8-2c-1.8-2.4-3.6-4.7-5.4-7.1-1.7-2.2-3.6-4.5-5.5-6.8z"/><path d="m199.6 66.4c0 2.6.6 4.9 1.9 7.1s2.9 4.1 5 5.8c2 1.6 4.4 2.9 7 3.8s5.3 1.4 8.1 1.4c.9 0 1.7-.1 2.6-.2s1.7-.4 2.4-.8 1.3-.9 1.8-1.5.7-1.4.7-2.3c0-1.8-.6-3.6-1.9-5.3s-2.9-3.5-5-5.2c-2-1.7-4.4-3.5-7-5.2s-5.3-3.4-8.1-5.1c-2.7-1.7-5.4-3.4-8.1-5.1-2.6-1.7-5-3.5-7-5.2s-3.7-3.5-5-5.2-1.9-3.5-1.9-5.3c0-1.7.4-3.3 1.3-4.8s2-2.8 3.5-4c1.4-1.2 3.1-2.3 5.1-3.2s3.9-1.7 6-2.4c2.1-.6 4.2-1.1 6.3-1.4s4.1-.5 6-.5c1.4 0 3 0 4.6.1s3.3.3 4.7.6c1.5.3 2.7.8 3.7 1.4s1.5 1.6 1.5 2.7c0 .4-.1.9-.2 1.4-.1.6-.5 1.5-1.1 2.8-.6 1.2-1.3 2.2-2.1 2.8s-1.8.9-3 .9c-1.7 0-3.6-.2-5.5-.6s-3.9-.6-5.9-.6c-1.1 0-2.1.1-3.2.2s-2.1.3-3 .6-1.6.7-2.2 1.2-.8 1.2-.8 2 .6 1.7 1.8 2.7 2.7 2.2 4.7 3.4c1.9 1.2 4.1 2.6 6.6 4.1s5 3 7.6 4.7 5.1 3.5 7.6 5.4 4.7 3.9 6.6 6 3.5 4.3 4.7 6.7c1.2 2.3 1.8 4.8 1.8 7.3 0 3.1-.7 5.8-2.1 8.1s-3.2 4.3-5.4 5.9-4.7 2.8-7.4 3.5-5.3 1.2-7.9 1.2-5.2-.3-7.9-.9-5.2-1.5-7.7-2.6-4.8-2.5-6.9-4.1c-2.2-1.6-4-3.4-5.6-5.4s-2.8-4.1-3.7-6.4-1.4-4.7-1.4-7.2c0-1.1.1-2.1.2-3.2s.4-2 .8-2.9c.4-.8.9-1.5 1.6-2s1.6-.8 2.6-.8c.3 0 .7 0 1.2.1s1.2.3 2.2.6c1.2.4 2.3 1 3.3 1.8 1 .7 1.5 1.8 1.5 3.1z"/><path d="m287.3 44.2c0-.5-.1-1.2-.3-2.1s-.5-2-.8-3.2-.6-2.5-1-3.9-.7-2.7-1-4.1c-.3-1.3-.6-2.6-.8-3.7-.2-1.2-.3-2.1-.3-2.9 0-1 .3-1.8.8-2.4.6-.6 1.3-1.1 2.1-1.4.9-.3 1.8-.6 2.7-.7 1-.1 1.9-.2 2.8-.2 1.1 0 2.2.3 3.2.9s1.8 1.7 2.1 3.3c.5 1.7.9 3.3 1.2 5s.6 3.3.9 4.9.5 3.1.7 4.6.5 2.9.7 4.2c.3 1 .6 1.8 1 2.4s.9 1.1 1.5 1.4 1.2.5 1.9.6 1.4.1 2.1.1c.9 0 1.8-.1 2.7-.3s1.9-.3 2.9-.3c.6 0 1.2.1 1.8.3s1.1.5 1.6 1 .8 1.2 1.1 2 .4 1.9.4 3.3c0 1.1-.2 2-.6 2.8-.4.7-1.2 1.2-2.4 1.5l-2.3.5c-.7.1-1.4.2-2 .3s-1.4.1-2.3.2c-2 .2-3 1.1-3 2.6 0 .1.1.7.3 1.7s.4 2.3.7 3.8.6 3.2.9 5 .7 3.5 1 5.2.6 3.1.9 4.4.4 2.2.6 2.8c.2.9.4 1.7.5 2.2s.2 1.2.2 2.1c0 .7-.2 1.4-.6 2s-.9 1.2-1.7 1.8c-.7.5-1.7.9-2.7 1.2-1.1.3-2.3.5-3.6.5-1.5 0-2.6-.5-3.2-1.4-.7-.9-1.1-2-1.4-3.2-.6-2.2-1.1-4.5-1.6-6.8s-1-4.7-1.4-7-.9-4.6-1.3-6.7c-.4-2.2-.8-4.3-1.1-6.3-.2-.9-.6-1.6-1.2-2.1-.6-.4-1.3-.7-2.1-.7-2.9 0-5.8.1-8.7.3s-5.8.4-8.6.5c-1 .1-1.7.4-2.3 1s-.8 1.3-.8 2.2c0 2 0 4 .1 5.9 0 2 .1 4 .1 6 0 2.3 0 4.8-.1 7.2-.1 2.5-.2 4.9-.3 7.2-.1.9-.3 1.6-.7 2.1-.4.6-.9 1-1.5 1.3s-1.3.6-2.1.7-1.6.2-2.4.2c-2 0-3.6-.3-4.7-1s-1.7-1.8-1.7-3.4c0-2.4.1-4.9.2-7.5s.2-5.2.2-7.9c0-1.8 0-3.5-.1-5.2 0-1.7-.1-3.4-.1-5.2 0-.8-.2-1.4-.5-1.8-.4-.4-.8-.7-1.3-1s-1.1-.5-1.7-.7-1.2-.6-1.7-1.1-.9-1.2-1.3-2-.5-2.1-.5-3.7c0-.9.2-1.5.5-2s.7-.9 1.2-1.2 1-.5 1.6-.7 1.1-.4 1.6-.7.9-.7 1.2-1.1.5-1.1.5-2c0-.5 0-1.1-.1-1.8 0-.7-.1-1.4-.1-2s-.1-1.2-.1-1.7-.1-.8-.1-1c0-1.4.2-2.6.6-3.5s.9-1.5 1.5-2 1.3-.7 2-.9c.7-.1 1.5-.2 2.1-.2 2.6 0 4.3.5 5.3 1.4s1.5 2.4 1.6 4.2l.3 6.7c.1 1 .4 1.8.8 2.3.5.5 1.2.8 2.3.8l14.5-.5c1.2-.1 2-.4 2.4-1 .1-.3.3-1.2.3-2.4z"/></g><image height="143" overflow="visible" transform="translate(289.9211 -8.6428)" width="227" xlink:href="FBFEA7639FC20052.png"/><path d="m479.8 58.2c-.7-5.1-2.2-10-4.9-14.6-2.3-4-5.6-7.4-9.6-9.9-3.5-2.2-7.3-3.7-11.3-4.6-4.4-.9-8.7-1.1-13.1-.4-6.3.9-12.1 3.5-17.5 7-5.1 3.3-9.7 7.3-14.1 11.5-1.9 1.9-3.7 3.8-5.6 5.7-.4.4-.7.4-1 0-2.8-2.9-5.8-5.8-8.7-8.5-1.9-1.9-3.8-3.5-5.9-5.1-4.1-3.4-8.6-6.3-13.6-8.3-6.1-2.3-12.3-3.1-18.8-2-8.1 1.3-14.8 5-20.4 11.1-2.8 3.1-5 6.5-6.5 10.5-1.3 3.2-2.2 6.5-2.3 10 0 2.2-.1 4.3.1 6.3.2 3.9 1.2 7.6 2.7 11.1 1.6 3.9 3.9 7.4 7 10.5 2.6 2.5 5.6 4.6 8.8 6.1 4.3 2.1 8.7 3.1 13.4 3.2 3.3.2 6.4-.1 9.7-.9 5.7-1.2 10.8-3.5 15.6-6.8s9.2-7.1 13.3-11.2c1.7-1.6 3.4-3.4 5.1-5.1.9-.9.9-.9 1.7 0 2.9 2.9 5.8 5.8 8.8 8.6 2.7 2.5 5.6 4.9 8.6 7.1 3.9 2.8 8.1 5.1 12.8 6.7 4.7 1.4 9.5 2 14.4 1.4 3.2-.2 6.3-1 9.3-2.2 5.5-2.3 10.3-5.6 14.1-10.1 3.7-4.5 6.1-9.5 7.4-15.2.2-1.4.3-2.7.4-4v-1c-.1-.2-.1-.4 0-.8v-2.2c-.1-.3-.1-.7 0-.9v-.7s0-.1 0-.2v-.4c.1-.5.2-1.2.1-1.7zm-86.2 5.2c-4 4-8 8.2-12.4 11.7-3.7 2.9-7.5 5.5-12 7-5 1.7-10 2.1-15.1.3-5.9-2.2-9.7-6.3-11.7-12.3-2.1-6.3-1.5-12.4 2.2-18.1 4-6.2 9.8-9.3 16.3-9.4 5.6 0 9.8 1.4 13.7 3.7 4 2.4 7.6 5.5 11 8.7 2.6 2.5 5.2 5 7.9 7.6.2.3.4.4.1.8zm67 12.4c-3.3 4.1-7.6 6.5-12.9 7.4-.5.1-1.1.1-1.6.2h-1.5c-4.7 0-8.9-1.5-13-3.9-4.1-2.5-7.9-5.8-11.3-9.2-2.4-2.3-4.8-4.7-7.2-7-.3-.3-.3-.4 0-.8 4.3-4.5 8.6-8.9 13.5-12.8 3.5-2.6 7.2-4.9 11.5-6.2 4.9-1.4 9.8-1.6 14.6.1 6.1 2.3 9.9 6.8 11.7 13 1.9 7.1.7 13.6-3.8 19.2z" fill="url(#b)"/><path d="m357.8 97.9c.1-.1.3-.1.4-.1h3.3c.2 0 .3 0 .4.1-1.3 0-2.7 0-4.1 0z" fill="url(#c)"/><path d="m480 61.9c-.2-.3-.2-.6 0-.8z" fill="url(#d)"/><path d="m480 64.9c-.2-.2-.2-.5 0-.7z" fill="url(#e)"/><path d="m480 60.5c-.2-.1-.2-.2 0-.2z" fill="url(#f)"/></svg>