<svg width="410" height="194" viewBox="0 0 410 194" fill="none" xmlns="http://www.w3.org/2000/svg">
<g clip-path="url(#clip0_449_975)">
<path d="M51.6505 48.6694C36.8505 54.2694 25.0505 65.9694 19.9505 80.9694C18.6505 84.9694 17.6505 89.2694 17.4505 93.8694C16.3505 117.069 34.9505 133.969 34.9505 133.969C34.9505 133.969 78.4505 162.169 132.051 159.969C185.651 157.769 226.95 163.369 226.95 163.369C226.95 163.369 310.551 174.469 364.151 136.869C393.151 116.569 394.151 90.6694 394.151 90.6694C394.151 90.6694 398.051 49.2694 349.451 35.7694C305.651 23.5694 282.251 27.8694 282.251 27.8694C282.251 27.8694 237.551 35.7694 205.751 40.8694C205.751 40.8694 171.351 41.8694 136.551 37.4694C101.251 32.9694 69.2505 41.9694 51.6505 48.6694Z" fill="white" stroke="black" stroke-width="3" stroke-miterlimit="10"/>
<path d="M287.35 37.9694C287.35 37.9694 286.45 31.7694 323.65 47.9694C360.85 64.1694 381.25 67.5694 380.85 92.7694C380.45 117.969 352.65 128.869 352.65 128.869C352.65 128.869 302.85 150.569 296.95 154.069C291.05 157.569 298.45 133.769 298.45 133.769C298.45 133.769 300.35 126.269 291.65 126.969C282.95 127.769 163.65 135.669 163.65 135.669C163.65 135.669 151.55 139.769 124.65 148.669C97.8502 157.569 48.9502 128.869 48.9502 128.869C48.9502 128.869 -5.24985 97.7694 50.6502 62.2694C106.55 26.7694 152.45 50.9694 152.45 50.9694C152.45 50.9694 183.55 67.9694 229.85 66.1694C275.05 64.4694 299.45 72.5694 301.05 68.4694C306.55 53.6694 287.35 37.9694 287.35 37.9694Z" fill="white" stroke="black" stroke-width="3" stroke-miterlimit="10"/>
<path d="M126.85 54.3694C126.85 54.3694 144.15 51.3694 152.45 58.8694C160.75 66.3694 291.95 73.5694 291.95 73.5694L291.95 122.169C291.95 122.169 171.15 127.669 155.45 135.769C139.75 143.869 124.95 140.669 124.95 140.669C124.95 140.669 167.05 103.669 126.85 54.3694Z" fill="white" stroke="black" stroke-width="3" stroke-miterlimit="10"/>
<path d="M291.85 135.669L291.85 58.8694L282.85 58.8694L282.85 135.669L291.85 135.669Z" fill="white" stroke="black" stroke-width="3" stroke-miterlimit="10"/>
<path d="M291.943 132.961L269.272 59.5863L262.871 61.5641L285.542 134.939L291.943 132.961Z" fill="white" stroke="black" stroke-width="2.9999" stroke-miterlimit="9.9997"/>
<path d="M291.914 61.5991L285.513 59.6213L262.842 132.996L269.243 134.974L291.914 61.5991Z" fill="white" stroke="black" stroke-width="2.9999" stroke-miterlimit="9.9997"/>
<path d="M269.838 132.963L247.167 59.5882L240.765 61.5661L263.437 134.941L269.838 132.963Z" fill="white" stroke="black" stroke-width="2.9999" stroke-miterlimit="9.9997"/>
<path d="M269.958 61.565L263.557 59.5872L240.885 132.962L247.286 134.94L269.958 61.565Z" fill="white" stroke="black" stroke-width="2.9999" stroke-miterlimit="9.9997"/>
<path d="M248.142 132.962L225.471 59.5871L219.07 61.5649L241.741 134.94L248.142 132.962Z" fill="white" stroke="black" stroke-width="2.9999" stroke-miterlimit="9.9997"/>
<path d="M248.184 61.5734L241.783 59.5955L219.111 132.97L225.513 134.948L248.184 61.5734Z" fill="white" stroke="black" stroke-width="2.9999" stroke-miterlimit="9.9997"/>
<path d="M225.243 132.962L202.572 59.5868L196.171 61.5647L218.842 134.939L225.243 132.962Z" fill="white" stroke="black" stroke-width="2.9999" stroke-miterlimit="9.9997"/>
<path d="M225.283 61.5668L218.881 59.589L196.21 132.964L202.611 134.942L225.283 61.5668Z" fill="white" stroke="black" stroke-width="2.9999" stroke-miterlimit="9.9997"/>
<path d="M203.192 132.926L177.421 49.5198L171.02 51.4977L196.791 134.904L203.192 132.926Z" fill="white" stroke="black" stroke-width="2.9999" stroke-miterlimit="9.9997"/>
<path d="M203.186 61.6353L196.785 59.6575L171.191 142.491L177.592 144.469L203.186 61.6353Z" fill="white" stroke="black" stroke-width="2.9999" stroke-miterlimit="9.9997"/>
<path d="M116.85 50.9694C116.85 50.9694 160.85 99.1694 114.25 140.369C114.25 140.369 33.8502 130.069 34.6502 95.6694C35.4502 58.7694 116.85 50.9694 116.85 50.9694Z" fill="white" stroke="black" stroke-width="3" stroke-miterlimit="10"/>
</g>
<defs>
<clipPath id="clip0_449_975">
<rect width="193" height="408.9" fill="white" transform="translate(409.45 0.969391) rotate(90)"/>
</clipPath>
</defs>
</svg>
